<svg width="93" height="24" viewBox="0 0 93 24" fill="none" xmlns="http://www.w3.org/2000/svg">
 <g clip-path="url(#clip0_7556_10571)">
  <path d="M69.8583 18.0134L74.0423 8.47463L78.2264 18.0134C78.253 18.0667 78.3062 18.0999 78.3594 18.0999H80.355C80.4614 18.0999 80.5346 17.9868 80.488 17.8937L75.7053 6.98462C75.0667 5.53451 73.0113 5.53451 72.3794 6.98462L67.5967 17.8937C67.5568 17.9935 67.6233 18.0999 67.7297 18.0999H69.7253C69.7851 18.0999 69.8384 18.0667 69.8583 18.0134Z" fill="black"/>
  <path d="M89.0152 11.8801C88.5495 12.2659 87.8777 12.4588 86.993 12.4588H84.2391V7.94215H86.993C87.8777 7.94215 88.5495 8.12841 89.0152 8.50092C89.4808 8.87343 89.7136 9.43218 89.7136 10.1772C89.7136 10.9222 89.4808 11.5009 89.0152 11.8867M89.5739 14.0552C89.7868 13.9688 89.9863 13.869 90.1659 13.7493C90.6382 13.4366 91.0307 13.0242 91.3234 12.5453C91.7358 11.8734 91.942 11.0552 91.942 10.104C91.942 8.76699 91.5096 7.73595 90.6515 7.00424C89.7934 6.27254 88.5695 5.90668 86.993 5.90668H83.2347C82.503 5.90668 81.9043 6.50535 81.9043 7.23705V17.9599C81.9043 18.0397 81.9708 18.1062 82.0506 18.1062H84.0928C84.1726 18.1062 84.2391 18.0397 84.2391 17.9599V14.5142H86.9996L89.5872 18.0464C89.6138 18.0863 89.6604 18.1062 89.707 18.1062H92.1549C92.2746 18.1062 92.3478 17.9732 92.2746 17.8734L89.5739 14.0619V14.0552Z" fill="black"/>
  <path d="M21.7517 0H2.24834C1.01109 0 0 1.00443 0 2.24833V21.7517C0 22.9889 1.00444 24 2.24834 24H21.7517C22.9889 24 24 22.9956 24 21.7517V2.24833C24 1.01108 22.9956 0 21.7517 0ZM23.255 21.7517C23.255 22.5832 22.5832 23.2616 21.745 23.2616H2.24169C1.41021 23.2616 0.731712 22.5898 0.731712 21.7517V2.24833C0.731712 1.41685 1.40356 0.73836 2.24169 0.73836H21.745C22.5765 0.73836 23.255 1.41019 23.255 2.24833V21.7517Z" fill="#72BF44"/>
  <path d="M7.81631 18.0134L12.0004 8.47463L16.1844 18.0134C16.211 18.0667 16.2642 18.0999 16.3174 18.0999H18.313C18.4194 18.0999 18.4926 17.9868 18.446 17.8937L13.6633 6.98462C13.0247 5.53451 10.9693 5.53451 10.3374 6.98462L5.55468 17.8937C5.51476 17.9935 5.58128 18.0999 5.68771 18.0999H7.68328C7.74315 18.0999 7.79636 18.0667 7.81631 18.0134Z" fill="#72BF44"/>
  <path d="M40.5633 5.90021C39.9247 5.90021 39.346 6.27271 39.0866 6.85808L35.5078 14.8869L31.8959 6.85142C31.6364 6.27271 31.0577 5.90021 30.4191 5.90021C29.5278 5.90021 28.8027 6.62526 28.8027 7.51661V17.9534C28.8027 18.0332 28.8693 18.0998 28.9491 18.0998H30.7783C30.8582 18.0998 30.9247 18.0332 30.9247 17.9534V9.35254L34.4302 17.3947C34.5766 17.7273 34.8626 17.9867 35.2152 18.0732C35.7739 18.2062 36.326 17.9202 36.5389 17.4213L40.0378 9.35919V17.9601C40.0378 18.0399 40.1043 18.1064 40.1841 18.1064H42.0333C42.1132 18.1064 42.1797 18.0399 42.1797 17.9601V7.52327C42.1797 6.63192 41.4546 5.90686 40.5633 5.90686" fill="#72BF44"/>
  <path d="M48.9112 17.9534V13.0842C48.9112 13.0842 48.8979 13.0177 48.8779 12.9911L43.6562 6.13295C43.583 6.03317 43.6562 5.89349 43.7759 5.89349H45.7649C45.8114 5.89349 45.8513 5.91344 45.8779 5.9467L50.0753 10.8624L54.2726 5.9467C54.2726 5.9467 54.3391 5.89349 54.3857 5.89349H56.3746C56.4943 5.89349 56.5675 6.03317 56.4943 6.13295L51.2726 12.9911C51.2726 12.9911 51.2393 13.0509 51.2393 13.0842V17.9534C51.2393 18.0332 51.1728 18.0997 51.093 18.0997H49.0575C48.9777 18.0997 48.9112 18.0332 48.9112 17.9534Z" fill="#72BF44"/>
  <path d="M62.3952 7.87618C60.1335 7.87618 58.3774 9.63892 58.3774 11.9139C58.3774 14.1888 60.1402 15.9715 62.3952 15.9715C63.4861 15.9715 64.6368 15.4726 65.5149 14.6744C65.588 14.6079 65.7011 14.6079 65.7677 14.6877L66.8785 15.9316C66.945 16.0048 66.9384 16.1179 66.8719 16.1844C65.6479 17.3618 63.945 18.1334 62.2754 18.1334C58.7499 18.1334 56.0293 15.4327 56.0293 11.9604C56.0293 8.48815 58.7832 5.83405 62.3619 5.83405C64.0182 5.83405 65.7011 6.5192 66.8652 7.65002C66.9317 7.71654 66.9384 7.82296 66.8785 7.89613L65.7743 9.27973C65.7078 9.3662 65.5814 9.3662 65.5082 9.28638C64.6634 8.40168 63.5127 7.88283 62.3952 7.88283V7.87618Z" fill="black"/>
 </g>
 <defs>
  <clipPath id="clip0_7556_10571">
   <rect width="92.4" height="24" fill="white"/>
  </clipPath>
 </defs>
</svg>
